<svg id="visual" viewBox="0 0 900 600" width="900" height="600" xmlns="http://www.w3.org/2000/svg" xmlns:xlink="http://www.w3.org/1999/xlink" version="1.1"><rect x="0" y="0" width="900" height="600" fill="#e379c7"></rect><path d="M0 299L39 299L39 299L78 299L78 299L117 299L117 299L157 299L157 299L196 299L196 299L235 299L235 299L274 299L274 299L313 299L313 299L352 299L352 299L391 299L391 299L430 299L430 299L470 299L470 299L509 299L509 299L548 299L548 299L587 299L587 299L626 299L626 299L665 299L665 299L704 299L704 299L743 299L743 299L783 299L783 299L822 299L822 299L861 299L861 299L900 299L900 299L900 601L900 601L861 601L861 601L822 601L822 601L783 601L783 601L743 601L743 601L704 601L704 601L665 601L665 601L626 601L626 601L587 601L587 601L548 601L548 601L509 601L509 601L470 601L470 601L430 601L430 601L391 601L391 601L352 601L352 601L313 601L313 601L274 601L274 601L235 601L235 601L196 601L196 601L157 601L157 601L117 601L117 601L78 601L78 601L39 601L39 601L0 601Z" fill="#2b5632"></path></svg>