<svg version="1.1" id="Layer_1" xmlns="http://www.w3.org/2000/svg" xmlns:xlink="http://www.w3.org/1999/xlink" x="0px" y="0px"
	 width="100%" viewBox="0 0 900 507" enable-background="new 0 0 900 507" xml:space="preserve">
<path fill="#E379C7" opacity="1.000000" stroke="none" 
	d="
M1.000000,253.000000 
	C1.000000,169.025589 1.000000,85.051170 1.000000,1.038377 
	C300.883026,1.038377 600.766052,1.038377 901.000000,1.038377 
	C901.000000,84.690414 901.000000,168.381332 900.537476,252.621338 
	C898.576294,253.196060 897.077515,253.244003 895.578796,253.244064 
	C599.211182,253.256012 302.843628,253.265091 6.476030,253.261963 
	C4.650686,253.261948 2.825344,253.091080 1.000000,253.000000 
z"/>
<path fill="#2B5632" opacity="1.000000" stroke="none" 
	d="
M901.000000,258.000000 
	C901.000000,341.307861 901.000000,424.615692 901.000000,507.961792 
	C601.117249,507.961792 301.234467,507.961792 1.000000,507.961792 
	C1.000000,424.976257 1.000000,341.951996 1.464131,258.533691 
	C36.031048,258.426483 70.133484,258.787842 104.236862,258.947296 
	C112.669952,258.986694 121.106033,258.097931 129.540878,258.095337 
	C384.196259,258.017273 638.851624,257.997253 893.507019,257.961426 
	C895.670532,257.961121 897.833984,257.869232 900.241211,257.903564 
	C900.656677,257.991333 900.828308,257.995667 901.000000,258.000000 
z"/>
<path fill="#FFFFFF" opacity="1.000000" stroke="none" 
	d="
M899.997498,257.820099 
	C897.833984,257.869232 895.670532,257.961121 893.507019,257.961426 
	C638.851624,257.997253 384.196259,258.017273 129.540878,258.095337 
	C121.106033,258.097931 112.669952,258.986694 104.236862,258.947296 
	C70.133484,258.787842 36.031048,258.426483 1.464131,258.069824 
	C1.000000,256.611115 1.000000,255.222214 1.000000,253.416656 
	C2.825344,253.091080 4.650686,253.261948 6.476030,253.261963 
	C302.843628,253.265091 599.211182,253.256012 895.578796,253.244064 
	C897.077515,253.244003 898.576294,253.196060 900.537476,253.085236 
	C901.000000,254.066666 901.000000,255.133347 900.801697,256.694092 
	C900.368591,257.367340 900.166626,257.577972 899.997498,257.820099 
z"/>
<path fill="#F0ECEE" opacity="1.000000" stroke="none" 
	d="
M900.241211,257.903564 
	C900.166626,257.577972 900.368591,257.367340 900.801697,257.094086 
	C901.000000,257.000000 901.000000,257.500000 901.000000,257.750000 
	C900.828308,257.995667 900.656677,257.991333 900.241211,257.903564 
z"/>
</svg>