<svg version="1.1" id="Layer_1" xmlns="http://www.w3.org/2000/svg" xmlns:xlink="http://www.w3.org/1999/xlink" x="0px" y="0px"
	 width="100%" viewBox="0 0 625 728" enable-background="new 0 0 625 728" xml:space="preserve">
<path fill="#2B5632" opacity="1.000000" stroke="none" 
	d="
M1.000000,728.000000 
	C1.000000,486.305298 1.000000,244.610611 1.468657,2.457891 
	C28.573042,2.005930 55.208771,2.011983 81.920006,2.480137 
	C82.002014,39.862095 81.992996,76.781967 82.020477,113.701797 
	C82.038673,138.146149 82.109200,162.590469 82.027939,187.351089 
	C81.640854,188.092987 81.417320,188.545227 81.118423,188.940460 
	C33.899418,251.379547 14.231799,321.601990 21.941521,399.442139 
	C26.226103,442.700836 40.113663,482.823975 62.748039,519.875854 
	C68.805840,529.792358 75.654938,539.225403 82.085358,549.353760 
	C82.024971,590.406006 82.035118,630.984985 82.008293,671.563965 
	C81.995872,690.353271 81.911423,709.142639 81.400642,727.956055 
	C54.294434,727.986755 27.647217,727.993347 1.000000,728.000000 
z"/>
<path fill="#FFFFFF" opacity="1.000000" stroke="none" 
	d="
M489.000000,1.000000 
	C507.354218,1.000000 525.708435,1.000000 544.376465,1.225672 
	C544.743530,1.625862 544.796753,1.800381 544.719604,2.430227 
	C544.556885,63.933163 544.524536,124.980774 544.173340,185.977097 
	C542.655762,184.819855 541.378479,183.787048 540.271057,182.596252 
	C532.137268,173.850113 524.376038,164.724701 515.830872,156.403214 
	C507.418030,148.210602 498.221375,140.822891 489.367371,132.605988 
	C489.367889,90.400528 489.372955,48.671104 489.359314,6.941687 
	C489.358765,5.289974 489.179535,3.638320 489.164429,1.731364 
	C489.163544,1.317394 489.081787,1.158697 489.000000,1.000000 
z"/>
<path fill="#FFFFFF" opacity="1.000000" stroke="none" 
	d="
M82.156296,187.034805 
	C82.109200,162.590469 82.038673,138.146149 82.020477,113.701797 
	C81.992996,76.781967 82.002014,39.862095 81.993484,2.230913 
	C81.994293,1.346392 81.997147,1.173196 82.000000,1.000000 
	C100.020897,1.000000 118.041786,1.000000 136.535614,1.259757 
	C137.057495,1.685640 137.106476,1.851767 137.079926,2.480039 
	C137.031891,46.319489 137.059357,89.696793 136.906158,133.357391 
	C125.801285,143.287521 114.536980,152.582260 104.064659,162.696976 
	C96.232597,170.261612 89.421829,178.883621 82.156296,187.034805 
z"/>
<path fill="#FFFFFF" opacity="1.000000" stroke="none" 
	d="
M545.000000,729.000000 
	C526.645752,729.000000 508.291534,729.000000 489.563843,728.766846 
	C489.149506,728.370850 489.108612,728.208008 489.195557,727.588013 
	C489.361023,685.726868 489.398682,644.322876 489.632629,602.676208 
	C490.376923,601.837585 490.889984,601.204651 491.477844,600.651062 
	C505.373718,587.566650 519.344788,574.561035 533.138489,561.369934 
	C537.178711,557.506165 540.719177,553.119812 544.506592,549.444092 
	C544.528870,607.322266 544.529785,664.729370 544.552490,722.136414 
	C544.553284,724.117493 544.772156,726.098450 544.829102,728.320190 
	C544.768738,728.560852 545.000000,729.000000 545.000000,729.000000 
z"/>
<path fill="#FFFFFF" opacity="1.000000" stroke="none" 
	d="
M81.859634,727.931946 
	C81.911423,709.142639 81.995872,690.353271 82.008293,671.563965 
	C82.035118,630.984985 82.024971,590.406006 82.381683,549.515137 
	C98.873543,568.911438 116.594322,586.994812 137.104935,602.604248 
	C137.078690,644.681519 137.109406,686.306396 137.077667,728.194824 
	C137.010178,728.638916 137.005096,728.819458 137.000000,729.000000 
	C118.979103,729.000000 100.958214,729.000000 82.461044,728.729370 
	C81.943062,728.283203 81.901344,728.107605 81.859634,727.931946 
z"/>
<path fill="#2B5632" opacity="1.000000" stroke="none" 
	d="
M352.000000,1.000000 
	C352.444336,1.000000 352.888672,1.000000 353.556763,1.457611 
	C353.784241,26.942444 353.787903,51.969666 353.357422,77.057693 
	C326.262909,74.213722 299.605011,74.239326 272.949402,76.704651 
	C272.991699,51.489948 273.034058,26.755493 273.539429,1.992426 
	C298.102112,1.956527 322.201874,1.970365 346.301392,1.901309 
	C348.201782,1.895864 350.100494,1.313984 352.000000,1.000000 
z"/>
<path fill="#2B5632" opacity="1.000000" stroke="none" 
	d="
M354.000000,729.000000 
	C353.555664,729.000000 353.111328,729.000000 352.077515,728.664062 
	C349.670837,728.218750 347.853851,728.016785 346.036499,728.013916 
	C321.726044,727.975281 297.415527,727.964539 273.028564,727.487061 
	C272.961823,704.056519 272.971558,681.085876 273.404236,658.102295 
	C287.230103,659.035767 300.632507,660.713013 314.035950,660.721680 
	C327.274200,660.730286 340.513519,659.052002 353.763306,658.574951 
	C353.849487,682.357422 353.924744,705.678711 354.000000,729.000000 
z"/>
<path fill="#FFFFFF" opacity="1.000000" stroke="none" 
	d="
M353.791565,76.996887 
	C353.787903,51.969666 353.784241,26.942444 353.890259,1.457611 
	C372.020905,1.000000 390.041779,1.000000 408.468719,1.253966 
	C408.928894,1.673686 408.983063,1.839441 408.939209,2.464670 
	C408.802124,31.985086 408.763062,61.046028 408.338135,90.083130 
	C400.493256,88.005638 393.085297,85.737213 385.562988,83.950089 
	C375.017120,81.444664 364.386139,79.297371 353.791565,76.996887 
z"/>
<path fill="#FFFEFE" opacity="1.000000" stroke="none" 
	d="
M273.076416,2.021038 
	C273.034058,26.755493 272.991699,51.489948 272.641235,76.926071 
	C263.703583,79.288872 255.015121,80.695969 246.460159,82.678932 
	C236.939865,84.885658 227.541077,87.616745 218.049438,89.639656 
	C217.950958,60.112812 217.892456,31.065870 217.906097,1.769188 
	C217.985489,1.346298 217.992752,1.173149 218.000000,1.000000 
	C236.020889,1.000000 254.041794,1.000000 272.488617,1.259889 
	C272.968506,1.686864 273.022461,1.853951 273.076416,2.021038 
z"/>
<path fill="#FFFFFF" opacity="1.000000" stroke="none" 
	d="
M354.468658,729.000000 
	C353.924744,705.678711 353.849487,682.357422 354.188660,658.514282 
	C366.094147,655.618164 377.610138,653.356750 389.066772,650.826477 
	C395.670502,649.367981 402.178314,647.474915 408.762390,646.269836 
	C408.874237,673.835388 408.952911,700.908630 408.969086,728.234619 
	C408.937714,728.658264 408.968842,728.829102 409.000000,729.000000 
	C390.979095,729.000000 372.958221,729.000000 354.468658,729.000000 
z"/>
<path fill="#FFFEFE" opacity="1.000000" stroke="none" 
	d="
M272.981262,658.115173 
	C272.971558,681.085876 272.961823,704.056519 272.965393,727.746643 
	C272.985809,728.644043 272.992889,728.822021 273.000000,729.000000 
	C254.979111,729.000000 236.958206,729.000000 218.456955,728.728638 
	C217.934937,728.281006 217.893265,728.104736 217.917313,727.468628 
	C218.006165,699.723755 218.029282,672.438660 218.400665,645.249878 
	C236.826355,649.602478 254.903809,653.858826 272.981262,658.115173 
z"/>
<path fill="#CED8CF" opacity="1.000000" stroke="none" 
	d="
M625.000000,1.000010 
	C625.333313,1.166687 625.943787,1.315943 625.955566,1.502814 
	C626.039001,2.830884 626.000000,4.166667 626.000000,5.500000 
	C626.000000,246.666672 626.000000,487.833344 625.468750,728.724731 
	C624.908997,728.267029 624.880432,728.084534 624.914551,727.443726 
	C624.984741,486.328308 624.992493,245.671188 624.992920,5.014070 
	C624.992920,4.017761 624.888000,3.021451 624.897339,1.772666 
	C624.975037,1.346794 624.987488,1.173397 625.000000,1.000010 
z"/>
<path fill="#738F78" opacity="1.000000" stroke="none" 
	d="
M81.400642,727.956055 
	C81.901344,728.107605 81.943062,728.283203 81.992386,728.729370 
	C55.000000,729.000000 28.000000,729.000000 1.000000,728.500000 
	C27.647217,727.993347 54.294434,727.986755 81.400642,727.956055 
z"/>
<path fill="#738F78" opacity="1.000000" stroke="none" 
	d="
M217.851578,727.928589 
	C217.893265,728.104736 217.934937,728.281006 217.988297,728.728638 
	C191.312439,729.000000 164.624878,729.000000 137.468658,729.000000 
	C137.005096,728.819458 137.010178,728.638916 137.536560,728.219116 
	C164.655792,727.962708 191.253677,727.945618 217.851578,727.928589 
z"/>
<path fill="#3F6646" opacity="1.000000" stroke="none" 
	d="
M81.531342,1.000000 
	C81.997147,1.173196 81.994293,1.346392 81.917969,1.768812 
	C55.208771,2.011983 28.573042,2.005930 1.468657,1.999938 
	C2.324390,1.666667 3.648127,1.045588 4.973268,1.042578 
	C30.336308,0.984966 55.699512,1.000000 81.531342,1.000000 
z"/>
<path fill="#3F6646" opacity="1.000000" stroke="none" 
	d="
M217.531342,1.000000 
	C217.992752,1.173149 217.985489,1.346298 217.448242,1.763052 
	C190.330658,2.010403 163.743042,2.014148 137.155441,2.017893 
	C137.106476,1.851767 137.057495,1.685640 137.004272,1.259757 
	C163.687561,1.000000 190.375122,1.000000 217.531342,1.000000 
z"/>
<path fill="#3F6646" opacity="1.000000" stroke="none" 
	d="
M624.531372,1.000000 
	C624.987488,1.173397 624.975037,1.346794 624.440063,1.764461 
	C597.561707,1.997454 571.205872,1.986177 544.850037,1.974900 
	C544.796753,1.800381 544.743530,1.625862 544.845154,1.225672 
	C571.354248,1.000000 597.708435,1.000000 624.531372,1.000000 
z"/>
<path fill="#3F6646" opacity="1.000000" stroke="none" 
	d="
M409.037262,2.005196 
	C408.983063,1.839441 408.928894,1.673686 408.937378,1.253966 
	C435.354218,1.000000 461.708466,1.000000 488.531342,1.000000 
	C489.081787,1.158697 489.163544,1.317394 488.689941,1.735460 
	C461.768860,1.998284 435.403046,2.001740 409.037262,2.005196 
z"/>
<path fill="#738F78" opacity="1.000000" stroke="none" 
	d="
M409.468658,729.000000 
	C408.968842,728.829102 408.937714,728.658264 409.435608,728.241211 
	C436.332336,728.011597 462.700012,728.028381 489.067719,728.045166 
	C489.108612,728.208008 489.149506,728.370850 489.095215,728.766846 
	C462.645782,729.000000 436.291534,729.000000 409.468658,729.000000 
z"/>
<path fill="#738F78" opacity="1.000000" stroke="none" 
	d="
M624.851868,727.901978 
	C624.880432,728.084534 624.908997,728.267029 624.968750,728.724731 
	C598.645752,729.000000 572.291565,729.000000 545.468628,729.000000 
	C545.000000,729.000000 544.768738,728.560852 545.304932,728.292664 
	C572.178101,727.983643 598.514954,727.942810 624.851868,727.901978 
z"/>
<path fill="#55785B" opacity="1.000000" stroke="none" 
	d="
M273.539429,1.992426 
	C273.022461,1.853951 272.968506,1.686864 272.957275,1.259889 
	C299.020905,1.000000 325.041779,1.000000 351.531342,1.000000 
	C350.100494,1.313984 348.201782,1.895864 346.301392,1.901309 
	C322.201874,1.970365 298.102112,1.956527 273.539429,1.992426 
z"/>
<path fill="#738F78" opacity="1.000000" stroke="none" 
	d="
M273.468658,729.000000 
	C272.992889,728.822021 272.985809,728.644043 273.041870,728.206421 
	C297.415527,727.964539 321.726044,727.975281 346.036499,728.013916 
	C347.853851,728.016785 349.670837,728.218750 351.744019,728.664062 
	C325.979095,729.000000 299.958221,729.000000 273.468658,729.000000 
z"/>
<path fill="#E379C7" opacity="1.000000" stroke="none" 
	d="
M273.404236,658.102295 
	C254.903809,653.858826 236.826355,649.602478 218.035004,645.140930 
	C188.505005,634.602112 161.672058,620.552917 137.161896,602.151794 
	C116.594322,586.994812 98.873543,568.911438 82.437088,549.041870 
	C75.654938,539.225403 68.805840,529.792358 62.748039,519.875854 
	C40.113663,482.823975 26.226103,442.700836 21.941521,399.442139 
	C14.231799,321.601990 33.899418,251.379547 81.118423,188.940460 
	C81.417320,188.545227 81.640854,188.092987 82.027939,187.351089 
	C89.421829,178.883621 96.232597,170.261612 104.064659,162.696976 
	C114.536980,152.582260 125.801285,143.287521 137.245209,133.307465 
	C153.618057,123.379608 169.188675,113.269051 185.426254,104.376328 
	C195.803970,98.692848 207.167725,94.809799 218.089401,90.119560 
	C227.541077,87.616745 236.939865,84.885658 246.460159,82.678932 
	C255.015121,80.695969 263.703583,79.288872 272.641327,77.406326 
	C299.605011,74.239326 326.262909,74.213722 353.357422,77.057693 
	C364.386139,79.297371 375.017120,81.444664 385.562988,83.950089 
	C393.085297,85.737213 400.493256,88.005638 408.577209,90.351791 
	C430.022461,98.531113 450.300385,107.549324 469.083801,119.631531 
	C475.906464,124.020126 482.610474,128.593155 489.368622,133.082031 
	C498.221375,140.822891 507.418030,148.210602 515.830872,156.403214 
	C524.376038,164.724701 532.137268,173.850113 540.271057,182.596252 
	C541.378479,183.787048 542.655762,184.819855 544.297729,186.329712 
	C545.803345,188.577438 546.781433,190.476181 547.941772,192.256042 
	C554.570862,202.424545 561.815796,212.239105 567.805481,222.768951 
	C599.682800,278.809509 611.389587,339.038757 604.122742,402.997040 
	C599.099915,447.204163 584.225525,487.945465 560.315125,525.404175 
	C555.224915,533.378662 549.773682,541.122742 544.488708,548.972961 
	C540.719177,553.119812 537.178711,557.506165 533.138489,561.369934 
	C519.344788,574.561035 505.373718,587.566650 491.477844,600.651062 
	C490.889984,601.204651 490.376923,601.837585 489.251648,602.672302 
	C487.816650,603.397278 486.903961,603.807312 486.109344,604.380859 
	C464.191071,620.200134 440.700073,633.090576 415.347260,642.549133 
	C413.058380,643.403076 410.931427,644.691040 408.729279,645.777466 
	C402.178314,647.474915 395.670502,649.367981 389.066772,650.826477 
	C377.610138,653.356750 366.094147,655.618164 354.177704,658.053040 
	C340.513519,659.052002 327.274200,660.730286 314.035950,660.721680 
	C300.632507,660.713013 287.230103,659.035767 273.404236,658.102295 
z"/>
<path fill="#2B5632" opacity="1.000000" stroke="none" 
	d="
M544.506592,549.444092 
	C549.773682,541.122742 555.224915,533.378662 560.315125,525.404175 
	C584.225525,487.945465 599.099915,447.204163 604.122742,402.997040 
	C611.389587,339.038757 599.682800,278.809509 567.805481,222.768951 
	C561.815796,212.239105 554.570862,202.424545 547.941772,192.256042 
	C546.781433,190.476181 545.803345,188.577438 544.616577,186.380997 
	C544.524536,124.980774 544.556885,63.933163 544.719604,2.430227 
	C571.205872,1.986177 597.561707,1.997454 624.374817,2.016936 
	C624.888000,3.021451 624.992920,4.017761 624.992920,5.014070 
	C624.992493,245.671188 624.984741,486.328308 624.914551,727.443726 
	C598.514954,727.942810 572.178101,727.983643 545.365356,728.052002 
	C544.772156,726.098450 544.553284,724.117493 544.552490,722.136414 
	C544.529785,664.729370 544.528870,607.322266 544.506592,549.444092 
z"/>
<path fill="#2B5632" opacity="1.000000" stroke="none" 
	d="
M489.367371,132.605988 
	C482.610474,128.593155 475.906464,124.020126 469.083801,119.631531 
	C450.300385,107.549324 430.022461,98.531113 408.963074,90.375633 
	C408.763062,61.046028 408.802124,31.985086 408.939209,2.464670 
	C435.403046,2.001740 461.768860,1.998284 488.609100,1.990733 
	C489.179535,3.638320 489.358765,5.289974 489.359314,6.941687 
	C489.372955,48.671104 489.367889,90.400528 489.367371,132.605988 
z"/>
<path fill="#2B5632" opacity="1.000000" stroke="none" 
	d="
M218.049438,89.639656 
	C207.167725,94.809799 195.803970,98.692848 185.426254,104.376328 
	C169.188675,113.269051 153.618057,123.379608 137.425873,133.024185 
	C137.059357,89.696793 137.031891,46.319489 137.079926,2.480039 
	C163.743042,2.014148 190.330658,2.010403 217.376099,2.012793 
	C217.892456,31.065870 217.950958,60.112812 218.049438,89.639656 
z"/>
<path fill="#2B5632" opacity="1.000000" stroke="none" 
	d="
M408.762390,646.269836 
	C410.931427,644.691040 413.058380,643.403076 415.347260,642.549133 
	C440.700073,633.090576 464.191071,620.200134 486.109344,604.380859 
	C486.903961,603.807312 487.816650,603.397278 489.055298,602.914978 
	C489.398682,644.322876 489.361023,685.726868 489.195557,727.588013 
	C462.700012,728.028381 436.332336,728.011597 409.498108,727.988342 
	C408.952911,700.908630 408.874237,673.835388 408.762390,646.269836 
z"/>
<path fill="#2B5632" opacity="1.000000" stroke="none" 
	d="
M137.104935,602.604248 
	C161.672058,620.552917 188.505005,634.602112 217.686737,645.044678 
	C218.029282,672.438660 218.006165,699.723755 217.917313,727.468689 
	C191.253677,727.945618 164.655792,727.962708 137.598999,727.955566 
	C137.109406,686.306396 137.078690,644.681519 137.104935,602.604248 
z"/>
</svg>