<svg version="1.1" id="Layer_1" xmlns="http://www.w3.org/2000/svg" xmlns:xlink="http://www.w3.org/1999/xlink" x="0px" y="0px"
	 width="100%" viewBox="0 0 1242 728" enable-background="new 0 0 1242 728" xml:space="preserve">
<path fill="#FEFEFE" opacity="1.000000" stroke="none" 
	d="
M864.000000,1.000000 
	C891.687561,1.000000 919.375122,1.000000 947.532104,1.468657 
	C948.001465,243.971909 948.001465,486.006500 948.001465,727.953247 
	C983.372620,727.953247 1017.984314,727.953247 1053.064331,727.953247 
	C1053.064331,725.789185 1053.064331,723.835144 1053.064331,721.881165 
	C1053.064331,483.419891 1053.064453,244.958633 1053.061646,6.497363 
	C1053.061523,4.664908 1053.021484,2.832454 1053.000000,1.000000 
	C1081.020874,1.000000 1109.041870,1.000000 1137.373901,1.445998 
	C1137.665039,2.724650 1137.627563,3.557303 1137.627563,4.389957 
	C1137.624878,244.170853 1137.624146,483.951752 1137.637939,723.732666 
	C1137.638062,725.219116 1137.839722,726.705505 1137.963135,728.393799 
	C1137.978882,728.595581 1138.000000,729.000000 1138.000000,729.000000 
	C1046.979126,729.000000 955.958191,729.000000 864.464844,728.734985 
	C863.987854,728.293335 863.983276,728.116699 863.976257,727.478088 
	C863.973694,697.036072 863.972290,667.056091 863.973511,637.076050 
	C863.982056,425.050690 863.991150,213.025345 864.000000,1.000000 
z"/>
<path fill="#FFFFFF" opacity="1.000000" stroke="none" 
	d="
M296.000000,1.000000 
	C323.687561,1.000000 351.375122,1.000000 379.522156,1.468580 
	C379.981628,243.972122 379.981628,486.007080 379.981628,727.954834 
	C415.341125,727.954834 449.950806,727.954834 485.000000,727.954834 
	C485.000000,485.491272 485.000000,243.245636 485.000000,1.000000 
	C512.687561,1.000000 540.375122,1.000000 568.648804,1.456068 
	C569.248596,2.911642 569.274048,3.911149 569.274109,4.910656 
	C569.275818,244.344208 569.276062,483.777740 569.269043,723.211304 
	C569.268982,724.707214 569.168091,726.203186 569.079346,728.023804 
	C569.029602,728.565674 569.014832,728.782837 569.000000,729.000000 
	C477.979095,729.000000 386.958221,729.000000 295.419556,728.746460 
	C294.928223,728.322815 294.954590,728.152710 295.269012,727.683228 
	C295.593475,725.385864 295.661713,723.387939 295.661774,721.389954 
	C295.666565,483.411713 295.665436,245.433472 295.680145,7.455235 
	C295.680267,5.303484 295.888794,3.151746 296.000000,1.000000 
z"/>
<path fill="#2B5632" opacity="1.000000" stroke="none" 
	d="
M1.000000,728.000000 
	C1.000000,485.666656 1.000000,243.333313 1.000000,1.000000 
	C35.772488,1.000000 70.421234,1.000000 105.568115,1.467653 
	C106.066246,243.940475 106.066246,485.945648 106.066246,728.000000 
	C70.603790,728.000000 35.801895,728.000000 1.000000,728.000000 
z"/>
<path fill="#2B5632" opacity="1.000000" stroke="none" 
	d="
M295.531372,1.000000 
	C295.888794,3.151746 295.680267,5.303484 295.680145,7.455235 
	C295.665436,245.433472 295.666565,483.411713 295.661774,721.389954 
	C295.661713,723.387939 295.593475,725.385864 294.804993,727.621033 
	C259.737976,727.876709 225.422989,727.895203 190.946747,727.475037 
	C190.766647,726.203979 190.731308,725.371521 190.731293,724.539124 
	C190.728790,484.848694 190.728226,245.158264 190.739792,5.467837 
	C190.739853,3.978554 190.909531,2.489279 191.000000,1.000000 
	C225.687561,1.000000 260.375122,1.000000 295.531372,1.000000 
z"/>
<path fill="#2B5632" opacity="1.000000" stroke="none" 
	d="
M484.531342,1.000000 
	C485.000000,243.245636 485.000000,485.491272 485.000000,727.954834 
	C449.950806,727.954834 415.341125,727.954834 379.981628,727.954834 
	C379.981628,486.007080 379.981628,243.972122 379.990814,1.468580 
	C414.687561,1.000000 449.375122,1.000000 484.531342,1.000000 
z"/>
<path fill="#2C5733" opacity="1.000000" stroke="none" 
	d="
M569.114258,727.699097 
	C569.168091,726.203186 569.268982,724.707214 569.269043,723.211304 
	C569.276062,483.777740 569.275818,244.344208 569.274109,4.910656 
	C569.274048,3.911149 569.248596,2.911642 569.117493,1.456068 
	C603.687561,1.000000 638.375122,1.000000 673.634766,1.458906 
	C674.212219,2.084373 674.222168,2.250934 674.222168,2.417495 
	C674.229065,242.855331 674.235901,483.293182 674.229492,723.731018 
	C674.229431,725.151489 674.045654,726.571960 673.946411,728.010681 
	C672.836182,728.082764 672.181824,728.162354 671.527405,728.162476 
	C638.702576,728.169800 605.877686,728.175659 573.052856,728.151428 
	C571.739868,728.150513 570.427185,727.856567 569.114258,727.699097 
z"/>
<path fill="#2B5632" opacity="1.000000" stroke="none" 
	d="
M863.533936,1.000000 
	C863.991150,213.025345 863.982056,425.050690 863.973511,637.076050 
	C863.972290,667.056091 863.973694,697.036072 863.516968,727.570740 
	C828.467896,728.125366 793.875793,728.125366 758.909668,728.125366 
	C758.909668,725.497803 758.909668,723.366699 758.909668,721.235535 
	C758.909668,483.155151 758.909424,245.074783 758.913391,6.994417 
	C758.913452,4.996278 758.969910,2.998139 759.000000,1.000000 
	C793.689270,1.000000 828.378601,1.000000 863.533936,1.000000 
z"/>
<path fill="#2B5632" opacity="1.000000" stroke="none" 
	d="
M1052.531372,1.000000 
	C1053.021484,2.832454 1053.061523,4.664908 1053.061646,6.497363 
	C1053.064453,244.958633 1053.064331,483.419891 1053.064331,721.881165 
	C1053.064331,723.835144 1053.064331,725.789185 1053.064331,727.953247 
	C1017.984314,727.953247 983.372620,727.953247 948.001465,727.953247 
	C948.001465,486.006500 948.001465,243.971909 948.000732,1.468657 
	C982.687561,1.000000 1017.375183,1.000000 1052.531372,1.000000 
z"/>
<path fill="#2B5632" opacity="1.000000" stroke="none" 
	d="
M1137.947388,728.192017 
	C1137.839722,726.705505 1137.638062,725.219116 1137.637939,723.732666 
	C1137.624146,483.951752 1137.624878,244.170853 1137.627563,4.389957 
	C1137.627563,3.557303 1137.665039,2.724650 1137.842529,1.445998 
	C1172.354248,1.000000 1206.708496,1.000000 1241.519287,1.462520 
	C1241.969604,243.931290 1241.963379,485.937531 1241.500244,728.041382 
	C1206.677979,728.156677 1172.312622,728.174316 1137.947388,728.192017 
z"/>
<path fill="#FEFEFE" opacity="1.000000" stroke="none" 
	d="
M758.531372,1.000000 
	C758.969910,2.998139 758.913452,4.996278 758.913391,6.994417 
	C758.909424,245.074783 758.909668,483.155151 758.909668,721.235535 
	C758.909668,723.366699 758.909668,725.497803 758.909668,728.125366 
	C793.875793,728.125366 828.467896,728.125366 863.519287,728.032715 
	C863.983276,728.116699 863.987854,728.293335 863.996216,728.734985 
	C765.979126,729.000000 667.958191,729.000000 569.468628,729.000000 
	C569.014832,728.782837 569.029602,728.565674 569.079346,728.023804 
	C570.427185,727.856567 571.739868,728.150513 573.052856,728.151428 
	C605.877686,728.175659 638.702576,728.169800 671.527405,728.162476 
	C672.181824,728.162354 672.836182,728.082764 673.946411,728.010681 
	C674.045654,726.571960 674.229431,725.151489 674.229492,723.731018 
	C674.235901,483.293182 674.229065,242.855331 674.222168,2.417495 
	C674.222168,2.250934 674.212219,2.084373 674.103394,1.458906 
	C702.020874,1.000000 730.041809,1.000000 758.531372,1.000000 
z"/>
<path fill="#FEFEFE" opacity="1.000000" stroke="none" 
	d="
M190.531342,1.000000 
	C190.909531,2.489279 190.739853,3.978554 190.739792,5.467837 
	C190.728226,245.158264 190.728790,484.848694 190.731293,724.539124 
	C190.731308,725.371521 190.766647,726.203979 190.965668,727.751221 
	C191.097214,728.644043 191.048599,728.822021 191.000000,729.000000 
	C127.666664,729.000000 64.333336,729.000000 1.000000,728.500000 
	C35.801895,728.000000 70.603790,728.000000 106.066246,728.000000 
	C106.066246,485.945648 106.066246,243.940475 106.033127,1.467653 
	C134.020889,1.000000 162.041794,1.000000 190.531342,1.000000 
z"/>
<path fill="#8AA28E" opacity="1.000000" stroke="none" 
	d="
M1241.957275,727.943787 
	C1241.963379,485.937531 1241.969604,243.931290 1241.987915,1.462507 
	C1242.333374,1.166350 1242.943726,1.315305 1242.955444,1.501898 
	C1243.038818,2.829234 1243.000000,4.164231 1243.000000,5.496785 
	C1243.000000,246.022766 1243.000000,486.548737 1242.737671,727.554321 
	C1242.302612,728.003845 1242.130005,727.973816 1241.957275,727.943787 
z"/>
<path fill="#FEFEFE" opacity="1.000000" stroke="none" 
	d="
M1241.500244,728.041382 
	C1242.130005,727.973816 1242.302612,728.003845 1242.737671,728.016968 
	C1241.673584,728.333313 1240.347656,728.955627 1239.020630,728.957764 
	C1205.659546,729.011536 1172.298462,729.000000 1138.468628,729.000000 
	C1138.000000,729.000000 1137.978882,728.595581 1137.963135,728.393799 
	C1172.312622,728.174316 1206.677979,728.156677 1241.500244,728.041382 
z"/>
<path fill="#8AA28E" opacity="1.000000" stroke="none" 
	d="
M191.468658,729.000000 
	C191.048599,728.822021 191.097214,728.644043 191.126923,728.189819 
	C225.422989,727.895203 259.737976,727.876709 294.516968,727.920410 
	C294.954590,728.152710 294.928223,728.322815 294.950928,728.746460 
	C260.645782,729.000000 226.291550,729.000000 191.468658,729.000000 
z"/>
</svg>