<svg id="visual" viewBox="0 0 900 450" width="900" height="450" xmlns="http://www.w3.org/2000/svg" xmlns:xlink="http://www.w3.org/1999/xlink" version="1.1"><path d="M0 199L37.5 198.3C75 197.7 150 196.3 225 183.7C300 171 375 147 450 126C525 105 600 87 675 95.2C750 103.3 825 137.7 862.5 154.8L900 172L900 0L862.5 0C825 0 750 0 675 0C600 0 525 0 450 0C375 0 300 0 225 0C150 0 75 0 37.5 0L0 0Z" fill="#e379c7"></path><path d="M0 352L37.5 358.8C75 365.7 150 379.3 225 366.7C300 354 375 315 450 300C525 285 600 294 675 311.2C750 328.3 825 353.7 862.5 366.3L900 379L900 170L862.5 152.8C825 135.7 750 101.3 675 93.2C600 85 525 103 450 124C375 145 300 169 225 181.7C150 194.3 75 195.7 37.5 196.3L0 197Z" fill="#2b5632"></path><path d="M0 451L37.5 451C75 451 150 451 225 451C300 451 375 451 450 451C525 451 600 451 675 451C750 451 825 451 862.5 451L900 451L900 377L862.5 364.3C825 351.7 750 326.3 675 309.2C600 292 525 283 450 298C375 313 300 352 225 364.7C150 377.3 75 363.7 37.5 356.8L0 350Z" fill="#e379c7"></path></svg>